<?xml version="1.0" encoding="UTF-8" standalone="no"?>
<!DOCTYPE svg PUBLIC "-//W3C//DTD SVG 1.1//EN" "http://www.w3.org/Graphics/SVG/1.1/DTD/svg11.dtd">
<!-- Created with Vectornator (http://vectornator.io/) -->
<svg height="100%" stroke-miterlimit="10" style="fill-rule:nonzero;clip-rule:evenodd;stroke-linecap:round;stroke-linejoin:round;" version="1.1" viewBox="0 0 403 450" width="100%" xml:space="preserve" xmlns="http://www.w3.org/2000/svg" xmlns:vectornator="http://vectornator.io" xmlns:xlink="http://www.w3.org/1999/xlink">
<defs/>
<g id="Layer-1" vectornator:layerName="Layer 1">
<path d="M17.5 23.5C17.8333 30.5 18.8333 34.6667 20.5 36C22.1667 37.3333 24.8333 37.8333 28.5 37.5C32.1667 37.1667 34.5 36.3333 35.5 35C36.5 33.6667 37 29.6667 37 23C37 19.6667 37 16.3333 37 13C36.1667 13 35.3333 13 34.5 13C33.6667 13 32.8333 13 32 13C32 16.1667 32 19.3333 32 22.5C32 28.8333 31.6667 32.3333 31 33C30.3333 33.6667 28.8333 33.8333 26.5 33.5C24.1667 33.1667 22.8333 29.6667 22.5 23C22.1667 16.3333 21.1667 13 19.5 13C18.6667 13 17.8333 13 17 13C17.1667 16.5 17.3333 20 17.5 23.5ZM44.5 25.5C43 29.6667 41.5 33.8333 40 38C41 38 42 38 43 38C45 38 46.1667 37 46.5 35C46.8333 33 48.8333 32 52.5 32C56.1667 32 58.1667 33 58.5 35C58.8333 37 60 38 62 38C63 38 64 38 65 38C63.6667 34 62.3333 30 61 26C58.3333 18 55.6667 13.8333 53 13.5C50.3333 13.1667 47.5 17.1667 44.5 25.5ZM68 25.5C68 29.6667 68 33.8333 68 38C68.8333 37.8333 69.6667 37.6667 70.5 37.5C72.1667 37.1667 73 34.3333 73 29C73 26.3333 73 23.6667 73 21C73.8333 23.8333 74.6667 26.6667 75.5 29.5C77.1667 35.1667 78.8333 37.8333 80.5 37.5C82.1667 37.1667 83.5 34.3333 84.5 29C85 26.3333 85.5 23.6667 86 21C86.1667 23.6667 86.3333 26.3333 86.5 29C86.8333 34.3333 87.8333 37.1667 89.5 37.5C90.3333 37.6667 91.1667 37.8333 92 38C92.1667 33.8333 92.3333 29.6667 92.5 25.5C92.6667 21.3333 92.8333 17.1667 93 13C91.5 13.1667 90 13.3333 88.5 13.5C85.5 13.8333 83.5 16.3333 82.5 21C82 23.3333 81.5 25.6667 81 28C80.6667 27.8333 80.3333 27.6667 80 27.5C79.3333 27.1667 78.5 24.6667 77.5 20C76.5 15.3333 74.6667 13 72 13C70.6667 13 69.3333 13 68 13C68 17.1667 68 21.3333 68 25.5ZM107.5 25.5C107.833 33.8333 111 38 117 38C120 38 123 38 126 38C126 37.3333 126 36.6667 126 36C126 35.3333 126 34.6667 126 34C123.667 34 121.333 34 119 34C116.667 34 114.333 34 112 34C112 32.6667 112 31.3333 112 30C112 28.6667 112 27.3333 112 26C114.167 26 116.333 26 118.5 26C120.667 26 122.833 26 125 26C125 25.3333 125 24.6667 125 24C125 23.3333 125 22.6667 125 22C122.833 22 120.667 22 118.5 22C116.333 22 114.167 22 112 22C112 21.1667 112 20.3333 112 19.5C112 18.6667 112 17.8333 112 17C114.333 17 116.667 17 119 17C121.333 17 123.667 17 126 17C126 16.3333 126 15.6667 126 15C126 14.3333 126 13.6667 126 13C122.833 13 119.667 13 116.5 13C113.333 13 110.167 13 107 13C107.167 17.1667 107.333 21.3333 107.5 25.5ZM194 16C192 18 191 19.6667 191 21C191 21.6667 191 22.3333 191 23C191.333 23 191.667 23 192 23C192.667 23 193.167 25.3333 193.5 30C193.833 34.6667 195.167 37.1667 197.5 37.5C199.833 37.8333 201.167 37.3333 201.5 36C201.667 35.3333 201.833 34.6667 202 34C201.333 33.8333 200.667 33.6667 200 33.5C198.667 33.1667 198 31.3333 198 28C198 26.3333 198 24.6667 198 23C198.667 23 199.333 23 200 23C200.667 23 201.333 23 202 23C202 22.3333 202 21.6667 202 21C202 20.3333 202 19.6667 202 19C201.333 19 200.667 19 200 19C198.667 19 197.833 18 197.5 16C197.333 15 197.167 14 197 13C196 14 195 15 194 16ZM52 18C52.6667 19.8333 53.3333 21.6667 54 23.5C54.6667 25.3333 55.3333 27.1667 56 29C54.8333 29 53.6667 29 52.5 29C51.3333 29 50.1667 29 49 29C49.5 27.1667 50 25.3333 50.5 23.5C51 21.6667 51.5 19.8333 52 18ZM132.5 21.5C130.833 23.1667 130 25.5 130 28.5C130 31.5 130.833 33.8333 132.5 35.5C134.167 37.1667 136.167 37.6667 138.5 37C139.667 36.6667 140.833 36.3333 142 36C142 37.5 142 39 142 40.5C142 42 142 43.5 142 45C142.833 45 143.667 45 144.5 45C145.333 45 146.167 45 147 45C147 40.6667 147 36.3333 147 32C147 27.6667 147 23.3333 147 19C146.333 19 145.667 19 145 19C144.333 19 143.667 19 143 19C143 19.3333 143 19.6667 143 20C143 20.3333 143 20.6667 143 21C141.667 20.6667 140.333 20.3333 139 20C136.333 19.3333 134.167 19.8333 132.5 21.5ZM152 27C152 32.3333 152.667 35.5 154 36.5C155.333 37.5 156.833 38 158.5 38C160.167 38 161.167 37.6667 161.5 37C161.833 36.3333 163 36.3333 165 37C166 37.3333 167 37.6667 168 38C168 34.8333 168 31.6667 168 28.5C168 25.3333 168 22.1667 168 19C167.167 19.1667 166.333 19.3333 165.5 19.5C163.833 19.8333 163.167 21.6667 163.5 25C163.833 28.3333 163.5 30.6667 162.5 32C161.5 33.3333 160.333 33.8333 159 33.5C157.667 33.1667 157 30.6667 157 26C157 23.6667 157 21.3333 157 19C156.167 19 155.333 19 154.5 19C153.667 19 152.833 19 152 19C152 21.6667 152 24.3333 152 27ZM176 20C174.667 20.6667 173.833 21.6667 173.5 23C173.333 23.6667 173.167 24.3333 173 25C173.667 25.1667 174.333 25.3333 175 25.5C176.333 25.8333 177.167 25.5 177.5 24.5C177.833 23.5 178.667 23 180 23C181.333 23 182.167 23.6667 182.5 25C182.667 25.6667 182.833 26.3333 183 27C181.333 27.3333 179.667 27.6667 178 28C174.667 28.6667 172.833 30 172.5 32C172.167 34 172.5 35.5 173.5 36.5C174.5 37.5 176.167 37.6667 178.5 37C180.833 36.3333 183.167 36.3333 185.5 37C186.667 37.3333 187.833 37.6667 189 38C188.667 35.1667 188.333 32.3333 188 29.5C187.333 23.8333 185.5 20.6667 182.5 20C179.5 19.3333 177.333 19.3333 176 20ZM205 28.5C205 31.6667 205 34.8333 205 38C205.667 38 206.333 38 207 38C208.333 38 209.167 35 209.5 29C209.833 23 209.167 19.8333 207.5 19.5C206.667 19.3333 205.833 19.1667 205 19C205 22.1667 205 25.3333 205 28.5ZM218.5 20C216.833 20.6667 215.5 22.5 214.5 25.5C213.5 28.5 213.5 31 214.5 33C215.5 35 217.667 36.3333 221 37C224.333 37.6667 227 37 229 35C231 33 232 30.8333 232 28.5C232 26.1667 231.333 24.1667 230 22.5C228.667 20.8333 226.833 19.8333 224.5 19.5C222.167 19.1667 220.167 19.3333 218.5 20ZM236 28.5C236 31.6667 236 34.8333 236 38C236.833 38 237.667 38 238.5 38C239.333 38 240.167 38 241 38C241 35.8333 241 33.6667 241 31.5C241 27.1667 241.333 24.6667 242 24C242.667 23.3333 243.667 23.1667 245 23.5C246.333 23.8333 247.167 26.3333 247.5 31C247.833 35.6667 248.667 38 250 38C250.667 38 251.333 38 252 38C252 35.3333 252 32.6667 252 30C252 24.6667 251.333 21.5 250 20.5C248.667 19.5 247 19.3333 245 20C243 20.6667 241 20.6667 239 20C238 19.6667 237 19.3333 236 19C236 22.1667 236 25.3333 236 28.5ZM259 20.5C257.667 21.5 256.833 22.6667 256.5 24C256.167 25.3333 256.333 26.5 257 27.5C257.667 28.5 259.667 29.6667 263 31C264.667 31.6667 266.333 32.3333 268 33C267 33.1667 266 33.3333 265 33.5C263 33.8333 261.5 33.5 260.5 32.5C260 32 259.5 31.5 259 31C258.5 31.5 258 32 257.5 32.5C257 33 256.5 33.5 256 34C256.833 34.6667 257.667 35.3333 258.5 36C260.167 37.3333 262.167 38 264.5 38C266.833 38 268.833 37.3333 270.5 36C272.167 34.6667 273 33.3333 273 32C273 30.6667 271 29 267 27C265 26 263 25 261 24C261.833 23.8333 262.667 23.6667 263.5 23.5C265.167 23.1667 266.667 23.3333 268 24C269.333 24.6667 270.333 24.5 271 23.5C271.333 23 271.667 22.5 272 22C271.167 21.5 270.333 21 269.5 20.5C267.833 19.5 266 19 264 19C262 19 260.333 19.5 259 20.5ZM139.5 24C141.167 24.6667 142 26.1667 142 28.5C142 30.8333 141.667 32.3333 141 33C140.333 33.6667 139.167 33.6667 137.5 33C135.833 32.3333 135 30.8333 135 28.5C135 26.1667 135.333 24.6667 136 24C136.667 23.3333 137.833 23.3333 139.5 24ZM224 24C226 24.6667 227 26.1667 227 28.5C227 30.8333 226.667 32.3333 226 33C225.333 33.6667 224.333 34 223 34C221.667 34 220.5 33.3333 219.5 32C218.5 30.6667 218.5 28.8333 219.5 26.5C220.5 24.1667 222 23.3333 224 24ZM96.5 61.5C92.8333 63.8333 90.1667 67.6667 88.5 73C86.8333 78.3333 86.5 82.6667 87.5 86C88.5 89.3333 90 92.1667 92 94.5C94 96.8333 96.1667 98.5 98.5 99.5C100.833 100.5 103.333 101 106 101C108.667 101 112 99.6667 116 97C120 94.3333 122.667 91.3333 124 88C125.333 84.6667 126 81.8333 126 79.5C126 77.1667 125.333 74.3333 124 71C122.667 67.6667 121.167 65.1667 119.5 63.5C117.833 61.8333 115.833 60.5 113.5 59.5C111.167 58.5 108.667 58 106 58C103.333 58 100.167 59.1667 96.5 61.5ZM108 62C112.667 62.6667 116.333 65 119 69C121.667 73 123 76.5 123 79.5C123 82.5 122.5 85.1667 121.5 87.5C120.5 89.8333 118.5 92.1667 115.5 94.5C112.5 96.8333 108.667 97.6667 104 97C99.3333 96.3333 95.6667 94 93 90C90.3333 86 89 82.5 89 79.5C89 76.5 89.5 73.8333 90.5 71.5C91.5 69.1667 93.5 66.8333 96.5 64.5C99.5 62.1667 103.333 61.3333 108 62ZM103 71.5C101 73.1667 100 74.6667 100 76C100 76.6667 100 77.3333 100 78C100.833 77.6667 101.667 77.3333 102.5 77C103.333 76.6667 104.167 76.3333 105 76C105 78.1667 105 80.3333 105 82.5C105 84.6667 105 86.8333 105 89C105.667 89 106.333 89 107 89C107.667 89 108.333 89 109 89C109 85.6667 109 82.3333 109 79C109 75.6667 109 72.3333 109 69C108.5 69 108 69 107.5 69C106.5 69 105 69.8333 103 71.5ZM263.5 77C263.167 80.3333 261.667 82 259 82C257.667 82 256.333 82 255 82C255 82.3333 255 82.6667 255 83C255 83.3333 255 83.6667 255 84C256.333 84 257.667 84 259 84C260.333 84 261.667 84 263 84C263 85.5 263 87 263 88.5C263 90 263 91.5 263 93C263.5 93 264 93 264.5 93C265 93 265.5 93 266 93C266 91.5 266 90 266 88.5C266 87 266 85.5 266 84C267.333 84 268.667 84 270 84C271.333 84 272.667 84 274 84C274 83.6667 274 83.3333 274 83C274 82.6667 274 82.3333 274 82C272.667 82 271.333 82 270 82C268.667 82 267.333 82 266 82C266 80.5 266 79 266 77.5C266 74.5 265.667 72.8333 265 72.5C264.667 72.3333 264.333 72.1667 264 72C263.833 73.6667 263.667 75.3333 263.5 77ZM307.5 74C307.167 75.3333 306.333 76.1667 305 76.5C304.333 76.6667 303.667 76.8333 303 77C303.5 77.1667 304 77.3333 304.5 77.5C305 77.6667 305.5 77.8333 306 78C305.667 78.8333 305.333 79.6667 305 80.5C304.333 82.1667 304.167 84.5 304.5 87.5C304.667 89 304.833 90.5 305 92C306.333 91.6667 307.667 91.3333 309 91C311.667 90.3333 313 89.6667 313 89C313 88.6667 313 88.3333 313 88C312.167 88.3333 311.333 88.6667 310.5 89C309.667 89.3333 308.833 89.6667 308 90C308.333 88 308.667 86 309 84C309.667 80 310.667 78 312 78C312.667 78 313.333 78 314 78C314 77.6667 314 77.3333 314 77C314 76.6667 314 76.3333 314 76C313.5 76 313 76 312.5 76C312 76 311.5 76 311 76C311 75.3333 311 74.6667 311 74C311 73.3333 311 72.6667 311 72C310.5 72 310 72 309.5 72C308.5 72 307.833 72.6667 307.5 74ZM156.5 77C155.5 77.6667 155 78.3333 155 79C155 79.3333 155 79.6667 155 80C155.667 79.6667 156.333 79.3333 157 79C157.667 78.6667 158.333 78.3333 159 78C158.833 80.1667 158.667 82.3333 158.5 84.5C158.167 88.8333 158.833 91.1667 160.5 91.5C162.167 91.8333 164.167 91 166.5 89C168.833 87 170.333 84.5 171 81.5C171.667 78.5 171.333 76.8333 170 76.5C168.667 76.1667 167.5 76.3333 166.5 77C165.5 77.6667 165 78.3333 165 79C165 79.3333 165 79.6667 165 80C165.667 79.6667 166.333 79.3333 167 79C167.667 78.6667 168.333 78.3333 169 78C169 78.6667 169 79.3333 169 80C169 81.3333 167.833 83.3333 165.5 86C164.333 87.3333 163.167 88.6667 162 90C162.333 88.1667 162.667 86.3333 163 84.5C163.667 80.8333 163.667 78.5 163 77.5C162.333 76.5 161.333 76 160 76C158.667 76 157.5 76.3333 156.5 77ZM214.5 77C213.5 77.6667 213.167 78.3333 213.5 79C213.667 79.3333 213.833 79.6667 214 80C214.667 79.6667 215.333 79.3333 216 79C216.667 78.6667 217.333 78.3333 218 78C217.667 80.1667 217.333 82.3333 217 84.5C216.333 88.8333 216.833 91.1667 218.5 91.5C220.167 91.8333 222.167 91.1667 224.5 89.5C226.833 87.8333 228.5 85.3333 229.5 82C230 80.3333 230.5 78.6667 231 77C230.167 76.8333 229.333 76.6667 228.5 76.5C226.833 76.1667 225.667 76.3333 225 77C224.333 77.6667 224 78.3333 224 79C224 79.3333 224 79.6667 224 80C224.5 79.6667 225 79.3333 225.5 79C226 78.6667 226.5 78.3333 227 78C227 79 227 80 227 81C227 83 226 85 224 87C223 88 222 89 221 90C221.167 88 221.333 86 221.5 84C221.833 80 221 77.6667 219 77C217 76.3333 215.5 76.3333 214.5 77ZM287 79.5C285 81.8333 284 84.1667 284 86.5C284 88.8333 284.333 90.3333 285 91C285.667 91.6667 287 91.6667 289 91C291 90.3333 293.167 90.3333 295.5 91C297.833 91.6667 299.333 91.6667 300 91C300.667 90.3333 301 89.6667 301 89C301 88.6667 301 88.3333 301 88C300.5 88.3333 300 88.6667 299.5 89C299 89.3333 298.5 89.6667 298 90C298.333 87.6667 298.667 85.3333 299 83C299.333 80.6667 299.667 78.3333 300 76C298.333 76 296.667 76 295 76C291.667 76 289 77.1667 287 79.5ZM293.5 78.5C294.5 78.8333 295 79.6667 295 81C295 82.3333 294.667 83.8333 294 85.5C293.333 87.1667 292.333 88.3333 291 89C290.333 89.3333 289.667 89.6667 289 90C289 88.6667 289 87.3333 289 86C289 83.3333 289.5 81.3333 290.5 80C291.5 78.6667 292.5 78.1667 293.5 78.5ZM183 80C183 80.3333 183 80.6667 183 81C186.167 81 189.333 81 192.5 81C195.667 81 198.833 81 202 81C202 80.6667 202 80.3333 202 80C202 79.6667 202 79.3333 202 79C198.833 79 195.667 79 192.5 79C189.333 79 186.167 79 183 79C183 79.3333 183 79.6667 183 80ZM233.5 84.5C232.5 86.1667 232 88 232 90C232 92 232.333 93.6667 233 95C233.667 96.3333 235 97.1667 237 97.5C239 97.8333 240.5 97.5 241.5 96.5C242.5 95.5 243.167 93.5 243.5 90.5C243.833 87.5 243.5 85.3333 242.5 84C241.5 82.6667 240 82 238 82C236 82 234.5 82.8333 233.5 84.5ZM237 83C237.5 83.1667 238 83.3333 238.5 83.5C239.5 83.8333 239.833 86 239.5 90C239.333 92 239.167 94 239 96C238.5 95.8333 238 95.6667 237.5 95.5C236.5 95.1667 236.167 93 236.5 89C236.667 87 236.833 85 237 83ZM183.5 86C183.333 86.3333 183.167 86.6667 183 87C186.167 87 189.333 87 192.5 87C195.667 87 198.833 87 202 87C202 86.6667 202 86.3333 202 86C202 85.6667 202 85.3333 202 85C199 85 196 85 193 85C187 85 183.833 85.3333 183.5 86ZM333 134.5C330.333 136.167 329.167 137.333 329.5 138C329.667 138.333 329.833 138.667 330 139C330.667 138.667 331.333 138.333 332 138C332.667 137.667 333.333 137.333 334 137C334 139.333 334 141.667 334 144C334 146.333 334 148.667 334 151C333.5 151 333 151 332.5 151C332 151 331.5 151 331 151C331 151.5 331 152 331 152.5C331 153 331 153.5 331 154C333 154 335 154 337 154C339 154 341 154 343 154C343 153.5 343 153 343 152.5C343 151.5 342.333 150.833 341 150.5C339.667 150.167 339 147 339 141C339 138 339 135 339 132C338.667 132 338.333 132 338 132C337.333 132 335.667 132.833 333 134.5ZM95.5 144.5C91.8333 146.833 89.3333 149.833 88 153.5C86.6667 157.167 86.1667 160.333 86.5 163C86.8333 165.667 88.3333 168.833 91 172.5C93.6667 176.167 96.1667 178.5 98.5 179.5C100.833 180.5 103.333 181 106 181C108.667 181 111.333 180.333 114 179C116.667 177.667 118.667 176.167 120 174.5C121.333 172.833 122.5 170.833 123.5 168.5C124.5 166.167 125 163.667 125 161C125 158.333 124.5 155.667 123.5 153C122.5 150.333 121.167 148.167 119.5 146.5C117.833 144.833 116 143.5 114 142.5C112 141.5 109.333 141 106 141C102.667 141 99.1667 142.167 95.5 144.5ZM108.5 144C112.167 144.667 115.333 146.833 118 150.5C120.667 154.167 122 157.5 122 160.5C122 163.5 121.5 166.167 120.5 168.5C119.5 170.833 117.5 173 114.5 175C111.5 177 108 177.833 104 177.5C100 177.167 97.1667 176.333 95.5 175C93.8333 173.667 92.3333 171.667 91 169C89.6667 166.333 89 163.667 89 161C89 158.333 89.5 155.833 90.5 153.5C91.5 151.167 93.8333 148.833 97.5 146.5C101.167 144.167 104.833 143.333 108.5 144ZM384 151.5C383.667 152 383.333 152.5 383 153C383.333 153.167 383.667 153.333 384 153.5C384.667 153.833 385.667 153.5 387 152.5C387.667 152 388.333 151.5 389 151C389.167 151.667 389.333 152.333 389.5 153C389.833 154.333 388.833 156.667 386.5 160C385.333 161.667 384.167 163.333 383 165C384.667 165.167 386.333 165.333 388 165.5C391.333 165.833 393.167 165.333 393.5 164C393.667 163.333 393.833 162.667 394 162C393 162.167 392 162.333 391 162.5C390 162.667 389 162.833 388 163C388 162.667 388 162.333 388 162C388 161.333 389 160 391 158C393 156 394 154.5 394 153.5C394 152.5 393.833 151.667 393.5 151C393.167 150.333 391.667 150 389 150C386.333 150 384.667 150.5 384 151.5ZM100 154C99.3333 155 98.6667 156 98 157C98.8333 157 99.6667 157 100.5 157C102.167 157 103.5 156.5 104.5 155.5C105 155 105.5 154.5 106 154C106.333 154.833 106.667 155.667 107 156.5C107.667 158.167 106.5 160.333 103.5 163C100.5 165.667 98.8333 167.667 98.5 169C98.3333 169.667 98.1667 170.333 98 171C100.333 171 102.667 171 105 171C107.333 171 109.667 171 112 171C112 170.333 112 169.667 112 169C112 168.333 112 167.667 112 167C110.667 167 109.333 167 108 167C106.667 167 105.333 167 104 167C105.167 166 106.333 165 107.5 164C109.833 162 111.167 159.833 111.5 157.5C111.833 155.167 111.5 153.5 110.5 152.5C109.5 151.5 107.833 151 105.5 151C103.167 151 101.333 152 100 154ZM159 166.5C157.667 170 156.333 173.5 155 177C157.833 177 160.667 177 163.5 177C166.333 177 169.167 177 172 177C171.167 174 170.333 171 169.5 168C167.833 162 166.333 158.5 165 157.5C164.333 157 163.667 156.5 163 156C161.667 159.5 160.333 163 159 166.5ZM275.5 160C275.167 161.333 274.5 162.167 273.5 162.5C273 162.667 272.5 162.833 272 163C272.333 163.167 272.667 163.333 273 163.5C273.667 163.833 273.667 165.833 273 169.5C272.333 173.167 272.167 175.333 272.5 176C272.833 176.667 274.167 177 276.5 177C278.833 177 280.333 176.5 281 175.5C281.333 175 281.667 174.5 282 174C281.167 174.167 280.333 174.333 279.5 174.5C278.667 174.667 277.833 174.833 277 175C277 174.333 277 173.667 277 173C277 171.667 277.333 169.833 278 167.5C278.667 165.167 279.667 164 281 164C281.667 164 282.333 164 283 164C283 163.667 283 163.333 283 163C283 162.667 283 162.333 283 162C282.5 162 282 162 281.5 162C281 162 280.5 162 280 162C280 161.333 280 160.667 280 160C280 159.333 280 158.667 280 158C279.333 158 278.667 158 278 158C276.667 158 275.833 158.667 275.5 160ZM300.5 162.5C300.667 164 300.833 165.5 301 167C299.5 167 298 167 296.5 167C295 167 293.5 167 292 167C292 167.333 292 167.667 292 168C292 168.333 292 168.667 292 169C293.5 169 295 169 296.5 169C298 169 299.5 169 301 169C300.833 170.5 300.667 172 300.5 173.5C300.333 175 300.167 176.5 300 178C300.5 178 301 178 301.5 178C302 178 302.5 178 303 178C303 176.5 303 175 303 173.5C303 172 303 170.5 303 169C304.333 169 305.667 169 307 169C308.333 169 309.667 169 311 169C311 168.667 311 168.333 311 168C311 167.667 311 167.333 311 167C309.667 167 308.333 167 307 167C305.667 167 304.333 167 303 167C303 165.5 303 164 303 162.5C303 161 303 159.5 303 158C302.5 158 302 158 301.5 158C301 158 300.5 158 300 158C300.167 159.5 300.333 161 300.5 162.5ZM374.5 160C374.167 161.333 373.5 162.167 372.5 162.5C372 162.667 371.5 162.833 371 163C371.333 163.167 371.667 163.333 372 163.5C372.667 163.833 372.667 165.833 372 169.5C371.333 173.167 371.167 175.333 371.5 176C371.833 176.667 373.167 177 375.5 177C377.833 177 379.333 176.5 380 175.5C380.333 175 380.667 174.5 381 174C380.167 174.167 379.333 174.333 378.5 174.5C377.667 174.667 376.833 174.833 376 175C376 174.333 376 173.667 376 173C376 171.667 376.333 169.833 377 167.5C377.667 165.167 378.667 164 380 164C380.667 164 381.333 164 382 164C382 163.667 382 163.333 382 163C382 162.667 382 162.333 382 162C381.5 162 381 162 380.5 162C380 162 379.5 162 379 162C379 161.333 379 160.667 379 160C379 159.333 379 158.667 379 158C378.333 158 377.667 158 377 158C375.667 158 374.833 158.667 374.5 160ZM163 161C163.833 163.333 164.667 165.667 165.5 168C166.333 170.333 167.167 172.667 168 175C166.333 175 164.667 175 163 175C161.333 175 159.667 175 158 175C158.833 172.667 159.667 170.333 160.5 168C161.333 165.667 162.167 163.333 163 161ZM176 163.5C175.667 164 175.333 164.5 175 165C175.667 164.833 176.333 164.667 177 164.5C177.667 164.333 178.333 164.167 179 164C179.167 165 179.333 166 179.5 167C179.833 169 179.5 170.667 178.5 172C177.5 173.333 176.333 174 175 174C174.333 174 173.667 174 173 174C173 174.5 173 175 173 175.5C173 176 173 176.5 173 177C173.667 177 174.333 177 175 177C176.333 177 177.333 176.333 178 175C178.667 173.667 179.333 173 180 173C180.667 173 181.167 173.667 181.5 175C181.833 176.333 182.833 177 184.5 177C186.167 177 187.333 176.5 188 175.5C188.333 175 188.667 174.5 189 174C188.333 174.167 187.667 174.333 187 174.5C186.333 174.667 185.667 174.833 185 175C184.833 173.833 184.667 172.667 184.5 171.5C184.167 169.167 184.333 167.5 185 166.5C185.667 165.5 186.5 165.167 187.5 165.5C188 165.667 188.5 165.833 189 166C189.167 165.333 189.333 164.667 189.5 164C189.667 163.333 189.833 162.667 190 162C189.333 162 188.667 162 188 162C186.667 162 185.667 162.667 185 164C184.667 164.667 184.333 165.333 184 166C183.667 165.333 183.333 164.667 183 164C182.333 162.667 181.167 162 179.5 162C177.833 162 176.667 162.5 176 163.5ZM238.5 163.5C238.333 164 238.167 164.5 238 165C238.667 164.833 239.333 164.667 240 164.5C240.667 164.333 241.333 164.167 242 164C241.833 166.167 241.667 168.333 241.5 170.5C241.333 172.667 241.167 174.833 241 177C242 177 243 177 244 177C246 177 248.333 175.5 251 172.5C253.667 169.5 255 167 255 165C255 164 255 163 255 162C254 162 253 162 252 162C250 162 248.833 162.5 248.5 163.5C248.333 164 248.167 164.5 248 165C248.667 164.833 249.333 164.667 250 164.5C250.667 164.333 251.333 164.167 252 164C251.833 165 251.667 166 251.5 167C251.167 169 250 170.833 248 172.5C247 173.333 246 174.167 245 175C245.167 173 245.333 171 245.5 169C245.833 165 244.833 162.833 242.5 162.5C240.167 162.167 238.833 162.5 238.5 163.5ZM355 163.5C353.667 164.5 352.833 166.833 352.5 170.5C352.333 172.333 352.167 174.167 352 176C354.833 176 357.667 176 360.5 176C363.333 176 366.167 176 369 176C369 175.667 369 175.333 369 175C369 174.667 369 174.333 369 174C368.333 174.167 367.667 174.333 367 174.5C366.333 174.667 365.667 174.833 365 175C365.5 172.833 366 170.667 366.5 168.5C367 166.333 367.5 164.167 368 162C366.167 162 364.333 162 362.5 162C358.833 162 356.333 162.5 355 163.5ZM201 165C201 165.333 201 165.667 201 166C204.167 166 207.333 166 210.5 166C213.667 166 216.833 166 220 166C220 165.667 220 165.333 220 165C220 164.667 220 164.333 220 164C216.833 164 213.667 164 210.5 164C207.333 164 204.167 164 201 164C201 164.333 201 164.667 201 165ZM361 164.5C362.333 164.833 362.833 166 362.5 168C362.167 170 361.5 171.667 360.5 173C359.5 174.333 358.5 175 357.5 175C357 175 356.5 175 356 175C356.5 173.167 357 171.333 357.5 169.5C358.5 165.833 359.667 164.167 361 164.5ZM258.5 169C257.5 170.333 257 172.5 257 175.5C257 178.5 257.5 180.5 258.5 181.5C259.5 182.5 260.833 183 262.5 183C264.167 183 265.5 182.5 266.5 181.5C267.5 180.5 268 178.333 268 175C268 171.667 267.5 169.5 266.5 168.5C265.5 167.5 264.167 167 262.5 167C260.833 167 259.5 167.667 258.5 169ZM327 168C327 168.333 327 168.667 327 169C330 169 333 169 336 169C339 169 342 169 345 169C345 168.667 345 168.333 345 168C345 167.667 345 167.333 345 167C342 167 339 167 336 167C333 167 330 167 327 167C327 167.333 327 167.667 327 168ZM262 168C262.333 168.167 262.667 168.333 263 168.5C263.667 168.833 263.833 171.167 263.5 175.5C263.333 177.667 263.167 179.833 263 182C262.667 181.833 262.333 181.667 262 181.5C261.333 181.167 261.167 178.833 261.5 174.5C261.667 172.333 261.833 170.167 262 168ZM201 172C201 172.333 201 172.667 201 173C204.167 173 207.333 173 210.5 173C213.667 173 216.833 173 220 173C220 172.667 220 172.333 220 172C220 171.667 220 171.333 220 171C216.833 171 213.667 171 210.5 171C207.333 171 204.167 171 201 171C201 171.333 201 171.667 201 172ZM331 177C329.667 177.667 329 178.667 329 180C329 180.667 329 181.333 329 182C330.167 181.333 331.333 180.667 332.5 180C333.667 179.333 334.833 178.667 336 178C336.167 179.167 336.333 180.333 336.5 181.5C336.833 183.833 336 186 334 188C332 190 330.5 192.167 329.5 194.5C329 195.667 328.5 196.833 328 198C330.333 198 332.667 198 335 198C339.667 198 342.167 197 342.5 195C342.667 194 342.833 193 343 192C342.5 192.333 342 192.667 341.5 193C340.5 193.667 338.833 193.833 336.5 193.5C335.333 193.333 334.167 193.167 333 193C334.333 191.833 335.667 190.667 337 189.5C339.667 187.167 341.333 185 342 183C342.667 181 342.333 179.333 341 178C339.667 176.667 338 176 336 176C334 176 332.333 176.333 331 177ZM311 230C309 231.333 308 232.333 308 233C308 233.333 308 233.667 308 234C308.667 233.833 309.333 233.667 310 233.5C310.667 233.333 311.333 233.167 312 233C312 235.333 312 237.667 312 240C312 242.333 312 244.667 312 247C311.333 247 310.667 247 310 247C309.333 247 308.667 247 308 247C308 247.333 308 247.667 308 248C308 248.333 308 248.667 308 249C310.333 249 312.667 249 315 249C317.333 249 319.667 249 322 249C322 248.667 322 248.333 322 248C322 247.333 321.333 246.833 320 246.5C318.667 246.167 318 243 318 237C318 234 318 231 318 228C317.333 228 316.667 228 316 228C314.667 228 313 228.667 311 230ZM99 238.5C95 240.833 92.3333 243.167 91 245.5C89.6667 247.833 88.8333 250.667 88.5 254C88.1667 257.333 88.5 260.5 89.5 263.5C90.5 266.5 92.1667 269.167 94.5 271.5C96.8333 273.833 100.667 275.333 106 276C111.333 276.667 115 276.5 117 275.5C119 274.5 121.167 272.667 123.5 270C125.833 267.333 127.167 263.333 127.5 258C127.833 252.667 127.333 248.667 126 246C124.667 243.333 123.167 241.333 121.5 240C119.833 238.667 116.667 237.5 112 236.5C107.333 235.5 103 236.167 99 238.5ZM108.5 238C111.5 238 114 238.5 116 239.5C118 240.5 120.167 242.833 122.5 246.5C124.833 250.167 126 253.333 126 256C126 258.667 125.5 261.167 124.5 263.5C123.5 265.833 121.167 268.333 117.5 271C113.833 273.667 110.833 275 108.5 275C106.167 275 103.667 274.333 101 273C98.3333 271.667 96 269.333 94 266C92 262.667 91 259.5 91 256.5C91 253.5 91.5 250.833 92.5 248.5C93.5 246.167 95.6667 243.833 99 241.5C102.333 239.167 105.5 238 108.5 238ZM363 247C362.667 247.667 362.333 248.333 362 249C362.5 249 363 249 363.5 249C364.5 249 365.333 248.5 366 247.5C366.333 247 366.667 246.5 367 246C367.167 247 367.333 248 367.5 249C367.833 251 367 253.5 365 256.5C364 258 363 259.5 362 261C363.667 261 365.333 261 367 261C368.667 261 370.333 261 372 261C372 260.333 372 259.667 372 259C372 258.333 372 257.667 372 257C371 257.167 370 257.333 369 257.5C368 257.667 367 257.833 366 258C366.833 257.167 367.667 256.333 368.5 255.5C370.167 253.833 371.167 252 371.5 250C371.833 248 370.667 246.667 368 246C365.333 245.333 363.667 245.667 363 247ZM104 247.5C102.667 248.5 102 249.5 102 250.5C102 251.5 102.5 252.167 103.5 252.5C104 252.667 104.5 252.833 105 253C105.167 252.5 105.333 252 105.5 251.5C105.833 250.5 106.5 250 107.5 250C108.5 250 109.167 250.5 109.5 251.5C109.833 252.5 109.333 253.667 108 255C107.333 255.667 106.667 256.333 106 257C106.5 257 107 257 107.5 257C108.5 257 109.333 257.667 110 259C110.333 259.667 110.667 260.333 111 261C110.333 261.333 109.667 261.667 109 262C107.667 262.667 106.667 262.5 106 261.5C105.333 260.5 104.333 260 103 260C102.333 260 101.667 260 101 260C101 260.333 101 260.667 101 261C101 261.667 101.5 262.667 102.5 264C103.5 265.333 105.333 266 108 266C110.667 266 112.5 265.333 113.5 264C114.5 262.667 114.5 261 113.5 259C112.5 257 112.333 255 113 253C113.667 251 113.667 249.5 113 248.5C112.333 247.5 111 246.833 109 246.5C107 246.167 105.333 246.5 104 247.5ZM159 262.5C157.667 266 156.333 269.5 155 273C157.833 273 160.667 273 163.5 273C166.333 273 169.167 273 172 273C171 269.5 170 266 169 262.5C167 255.5 165.5 252 164.5 252C163.5 252 161.667 255.5 159 262.5ZM254.5 255C254.167 256.333 253.5 257.167 252.5 257.5C252 257.667 251.5 257.833 251 258C251.333 258.167 251.667 258.333 252 258.5C252.667 258.833 252.667 260 252 262C251.333 264 251.167 266.333 251.5 269C251.667 270.333 251.833 271.667 252 273C253.333 272.667 254.667 272.333 256 272C258.667 271.333 260 270.667 260 270C260 269.667 260 269.333 260 269C259.167 269.333 258.333 269.667 257.5 270C256.667 270.333 255.833 270.667 255 271C255 270.5 255 270 255 269.5C255 268.5 255.333 266.5 256 263.5C256.667 260.5 257.833 258.833 259.5 258.5C260.333 258.333 261.167 258.167 262 258C261.333 257.833 260.667 257.667 260 257.5C258.667 257.167 258 256.333 258 255C258 254.333 258 253.667 258 253C257.5 253 257 253 256.5 253C255.5 253 254.833 253.667 254.5 255ZM353.5 255C353.167 256.333 352.5 257.167 351.5 257.5C351 257.667 350.5 257.833 350 258C350.333 258.167 350.667 258.333 351 258.5C351.667 258.833 351.667 260 351 262C350.333 264 350.167 266.333 350.5 269C350.667 270.333 350.833 271.667 351 273C352.333 272.667 353.667 272.333 355 272C357.667 271.333 359 270.667 359 270C359 269.667 359 269.333 359 269C358.167 269.333 357.333 269.667 356.5 270C355.667 270.333 354.833 270.667 354 271C354.333 269 354.667 267 355 265C355.667 261 356.667 259 358 259C358.667 259 359.333 259 360 259C360 258.667 360 258.333 360 258C360 257.667 360 257.333 360 257C359.5 257 359 257 358.5 257C358 257 357.5 257 357 257C357 256.333 357 255.667 357 255C357 254.333 357 253.667 357 253C356.5 253 356 253 355.5 253C354.5 253 353.833 253.667 353.5 255ZM163 257C163.833 259.167 164.667 261.333 165.5 263.5C166.333 265.667 167.167 267.833 168 270C166.333 270 164.667 270 163 270C161.333 270 159.667 270 158 270C158.833 267.833 159.667 265.667 160.5 263.5C161.333 261.333 162.167 259.167 163 257ZM176.5 259C176 259.667 175.5 260.333 175 261C175.667 260.667 176.333 260.333 177 260C177.667 259.667 178.333 259.333 179 259C179.167 260.167 179.333 261.333 179.5 262.5C179.833 264.833 179.5 266.667 178.5 268C177.5 269.333 176.5 269.833 175.5 269.5C175 269.333 174.5 269.167 174 269C173.833 269.667 173.667 270.333 173.5 271C173.333 271.667 173.167 272.333 173 273C173.5 273 174 273 174.5 273C175.5 273 176.667 272.167 178 270.5C178.667 269.667 179.333 268.833 180 268C180.333 268.833 180.667 269.667 181 270.5C181.667 272.167 183 272.833 185 272.5C187 272.167 188.167 271.5 188.5 270.5C188.667 270 188.833 269.5 189 269C188.333 269.333 187.667 269.667 187 270C186.333 270.333 185.667 270.667 185 271C184.833 269.833 184.667 268.667 184.5 267.5C184.167 265.167 184.5 263.333 185.5 262C186.5 260.667 187.5 260.167 188.5 260.5C189 260.667 189.5 260.833 190 261C190 260.333 190 259.667 190 259C190 258.333 190 257.667 190 257C189.5 257 189 257 188.5 257C187.5 257 186.5 257.667 185.5 259C185 259.667 184.5 260.333 184 261C183.667 260.333 183.333 259.667 183 259C182.333 257.667 181.333 257 180 257C178.667 257 177.5 257.667 176.5 259ZM232.5 258C232 258.333 231.5 258.667 231 259C231.667 259 232.333 259 233 259C233.667 259 234.333 259 235 259C234.833 261.167 234.667 263.333 234.5 265.5C234.167 269.833 234.833 272.167 236.5 272.5C238.167 272.833 240.167 272 242.5 270C244.833 268 246.333 265.5 247 262.5C247.667 259.5 247.333 257.833 246 257.5C244.667 257.167 243.5 257.333 242.5 258C242 258.333 241.5 258.667 241 259C241.667 259 242.333 259 243 259C243.667 259 244.333 259 245 259C245 259.5 245 260 245 260.5C245 261.5 243.833 263.5 241.5 266.5C240.333 268 239.167 269.5 238 271C238.167 268.833 238.333 266.667 238.5 264.5C238.833 260.167 238.167 257.833 236.5 257.5C234.833 257.167 233.5 257.333 232.5 258ZM333 260.5C331 262.833 330 265.167 330 267.5C330 269.833 330.333 271.333 331 272C331.667 272.667 332.667 273 334 273C335.333 273 336.5 272.5 337.5 271.5C338 271 338.5 270.5 339 270C339.333 270.5 339.667 271 340 271.5C340.667 272.5 342.167 272.667 344.5 272C345.667 271.667 346.833 271.333 348 271C347.833 270.667 347.667 270.333 347.5 270C347.333 269.667 347.167 269.333 347 269C346.5 269.333 346 269.667 345.5 270C345 270.333 344.5 270.667 344 271C344.333 268.667 344.667 266.333 345 264C345.333 261.667 345.667 259.333 346 257C344.333 257 342.667 257 341 257C337.667 257 335 258.167 333 260.5ZM339.5 259.5C340.5 259.833 340.833 261.333 340.5 264C340.167 266.667 339.167 268.5 337.5 269.5C336.667 270 335.833 270.5 335 271C335 269.667 335 268.333 335 267C335 264.333 335.5 262.333 336.5 261C337.5 259.667 338.5 259.167 339.5 259.5ZM201 261C201 261.333 201 261.667 201 262C204.167 262 207.333 262 210.5 262C213.667 262 216.833 262 220 262C220 261.667 220 261.333 220 261C220 260.667 220 260.333 220 260C216.833 260 213.667 260 210.5 260C207.333 260 204.167 260 201 260C201 260.333 201 260.667 201 261ZM271 264C271 264.333 271 264.667 271 265C274.167 265 277.333 265 280.5 265C283.667 265 286.833 265 290 265C290 264.667 290 264.333 290 264C290 263.667 290 263.333 290 263C286.833 263 283.667 263 280.5 263C277.333 263 274.167 263 271 263C271 263.333 271 263.667 271 264ZM305 264C305 264.333 305 264.667 305 265C308 265 311 265 314 265C317 265 320 265 323 265C323 264.667 323 264.333 323 264C323 263.667 323 263.333 323 263C320 263 317 263 314 263C311 263 308 263 305 263C305 263.333 305 263.667 305 264ZM201 267C201 267.333 201 267.667 201 268C204.167 268 207.333 268 210.5 268C213.667 268 216.833 268 220 268C220 267.667 220 267.333 220 267C220 266.667 220 266.333 220 266C216.833 266 213.667 266 210.5 266C207.333 266 204.167 266 201 266C201 266.333 201 266.667 201 267ZM308.5 272.5C307.5 272.833 307 273.667 307 275C307 276.333 307.333 277.167 308 277.5C308.667 277.833 309.5 277.333 310.5 276C311.5 274.667 312.5 274 313.5 274C314.5 274 315.167 274.833 315.5 276.5C315.833 278.167 314.5 280.833 311.5 284.5C308.5 288.167 307 290.5 307 291.5C307 292 307 292.5 307 293C309.333 293 311.667 293 314 293C316.333 293 318.667 293 321 293C321 292 321 291 321 290C321 289 321 288 321 287C320.667 287.333 320.333 287.667 320 288C319.333 288.667 317.833 289 315.5 289C314.333 289 313.167 289 312 289C313.333 287.667 314.667 286.333 316 285C318.667 282.333 320 279.667 320 277C320 274.333 318.333 272.833 315 272.5C311.667 272.167 309.5 272.167 308.5 272.5ZM99.5 316.5C97.1667 317.5 94.8333 319.167 92.5 321.5C90.1667 323.833 88.5 326.667 87.5 330C86.5 333.333 86.1667 336.333 86.5 339C86.8333 341.667 87.6667 344.333 89 347C90.3333 349.667 92 351.833 94 353.5C96 355.167 99.5 356.333 104.5 357C109.5 357.667 114 356.667 118 354C122 351.333 124.667 348.167 126 344.5C127.333 340.833 127.833 337.5 127.5 334.5C127.167 331.5 125.5 328 122.5 324C119.5 320 116.833 317.5 114.5 316.5C112.167 315.5 109.667 315 107 315C104.333 315 101.833 315.5 99.5 316.5ZM107.5 318C110.5 318 113 318.5 115 319.5C117 320.5 119.167 322.833 121.5 326.5C123.833 330.167 125 333.5 125 336.5C125 339.5 124.5 342.167 123.5 344.5C122.5 346.833 121.167 348.833 119.5 350.5C117.833 352.167 115.5 353.5 112.5 354.5C109.5 355.5 106.167 355.5 102.5 354.5C98.8333 353.5 95.6667 351 93 347C90.3333 343 89.3333 338.667 90 334C90.6667 329.333 91.8333 326 93.5 324C95.1667 322 97.1667 320.5 99.5 319.5C101.833 318.5 104.5 318 107.5 318ZM248.5 323.5C247.5 323.833 247 324.5 247 325.5C247 326 247 326.5 247 327C247.5 327 248 327 248.5 327C249.5 327 250.333 326.5 251 325.5C251.333 325 251.667 324.5 252 324C252.167 325 252.333 326 252.5 327C252.833 329 252 331.5 250 334.5C249 336 248 337.5 247 339C248.833 339 250.667 339 252.5 339C254.333 339 256.167 339 258 339C258 338.333 258 337.667 258 337C258 336.333 258 335.667 258 335C256.833 335.167 255.667 335.333 254.5 335.5C253.333 335.667 252.167 335.833 251 336C251.833 335.167 252.667 334.333 253.5 333.5C255.167 331.833 256.167 329.833 256.5 327.5C256.667 326.333 256.833 325.167 257 324C255.833 323.833 254.667 323.667 253.5 323.5C251.167 323.167 249.5 323.167 248.5 323.5ZM175 326C174.667 326.667 174.333 327.333 174 328C174.833 327.5 175.667 327 176.5 326.5C177.333 326 178.167 325.5 179 325C179.167 326 179.333 327 179.5 328C179.833 330 179 332.5 177 335.5C176 337 175 338.5 174 340C175.667 340 177.333 340 179 340C182.333 340 184.167 339.333 184.5 338C184.667 337.333 184.833 336.667 185 336C183.833 336.167 182.667 336.333 181.5 336.5C180.333 336.667 179.167 336.833 178 337C178.833 336.167 179.667 335.333 180.5 334.5C182.167 332.833 183.167 330.833 183.5 328.5C183.667 327.333 183.833 326.167 184 325C182.667 324.833 181.333 324.667 180 324.5C177.333 324.167 175.667 324.667 175 326ZM103.5 333C100.5 337 99 339.667 99 341C99 341.667 99 342.333 99 343C100.333 343 101.667 343 103 343C104.333 343 105.667 343 107 343C107 343.667 107 344.333 107 345C107 345.667 107 346.333 107 347C107.667 347 108.333 347 109 347C109.667 347 110.333 347 111 347C111 346.5 111 346 111 345.5C111 345 111 344.5 111 344C111.5 344 112 344 112.5 344C113 344 113.5 344 114 344C114 343.333 114 342.667 114 342C114 341.333 114 340.667 114 340C113.5 340 113 340 112.5 340C112 340 111.5 340 111 340C111.167 337.833 111.333 335.667 111.5 333.5C111.667 331.333 111.833 329.167 112 327C111.333 327 110.667 327 110 327C108.667 327 106.5 329 103.5 333ZM300 333.5C299.667 334.333 299.333 335.167 299 336C300.333 335.5 301.667 335 303 334.5C304.333 334 305.667 333.5 307 333C307.167 333.833 307.333 334.667 307.5 335.5C307.833 337.167 306.5 339.833 303.5 343.5C300.5 347.167 299 349.5 299 350.5C299 351 299 351.5 299 352C301.333 352 303.667 352 306 352C308.333 352 310.667 352 313 352C313 351 313 350 313 349C313 348 313 347 313 346C312.667 346.333 312.333 346.667 312 347C311.333 347.667 309.833 348 307.5 348C306.333 348 305.167 348 304 348C305.5 346.333 307 344.667 308.5 343C311.5 339.667 313 337.167 313 335.5C313 333.833 312.667 332.667 312 332C311.333 331.333 309.333 331 306 331C302.667 331 300.667 331.833 300 333.5ZM339 341.5C337.667 345 336.333 348.5 335 352C338 352 341 352 344 352C347 352 350 352 353 352C352 348.667 351 345.333 350 342C348 335.333 346.333 331.833 345 331.5C343.667 331.167 341.667 334.5 339 341.5ZM278 337C278 338.667 278 340.333 278 342C276.667 342 275.333 342 274 342C272.667 342 271.333 342 270 342C270 342.333 270 342.667 270 343C270 343.333 270 343.667 270 344C271.333 344 272.667 344 274 344C275.333 344 276.667 344 278 344C278 345.5 278 347 278 348.5C278 350 278 351.5 278 353C278.333 353 278.667 353 279 353C279.333 353 279.667 353 280 353C280 351.5 280 350 280 348.5C280 347 280 345.5 280 344C281.333 344 282.667 344 284 344C286.667 344 288.167 343.667 288.5 343C288.667 342.667 288.833 342.333 289 342C287.667 342 286.333 342 285 342C282.333 342 280.833 340.333 280.5 337C280.167 333.667 279.667 332 279 332C278.667 332 278.333 332 278 332C278 333.667 278 335.333 278 337ZM156.5 337C155.5 337.667 155 338.333 155 339C155 339.333 155 339.667 155 340C155.667 339.667 156.333 339.333 157 339C157.667 338.667 158.333 338.333 159 338C158.833 340.167 158.667 342.333 158.5 344.5C158.167 348.833 158.833 351.167 160.5 351.5C162.167 351.833 164.167 351 166.5 349C168.833 347 170.333 344.5 171 341.5C171.333 340 171.667 338.5 172 337C171.167 336.833 170.333 336.667 169.5 336.5C167.833 336.167 166.667 336.333 166 337C165.667 337.333 165.333 337.667 165 338C165.667 338 166.333 338 167 338C167.667 338 168.333 338 169 338C169 338.667 169 339.333 169 340C169 341.333 167.833 343.333 165.5 346C164.333 347.333 163.167 348.667 162 350C162.333 348.167 162.667 346.333 163 344.5C163.667 340.833 163.667 338.5 163 337.5C162.333 336.5 161.333 336 160 336C158.667 336 157.5 336.333 156.5 337ZM229.5 337C229 337.333 228.5 337.667 228 338C228.667 338 229.333 338 230 338C230.667 338 231.333 338 232 338C231.833 340.167 231.667 342.333 231.5 344.5C231.167 348.833 231.833 351.167 233.5 351.5C235.167 351.833 237.333 350.833 240 348.5C242.667 346.167 244.333 343.833 245 341.5C245.667 339.167 245.833 337.667 245.5 337C245.167 336.333 243.833 336.333 241.5 337C240.333 337.333 239.167 337.667 238 338C238.667 338 239.333 338 240 338C240.667 338 241.333 338 242 338C242 338.667 242 339.333 242 340C242 341.333 240.833 343.333 238.5 346C237.333 347.333 236.167 348.667 235 350C235.333 348 235.667 346 236 344C236.667 340 236 337.667 234 337C232 336.333 230.5 336.333 229.5 337ZM320.5 338.5C318.833 340.167 317.833 342.5 317.5 345.5C317.167 348.5 317.333 350.333 318 351C318.667 351.667 319.667 352 321 352C322.333 352 323.5 351.5 324.5 350.5C325 350 325.5 349.5 326 349C326.333 349.5 326.667 350 327 350.5C327.667 351.5 329.167 351.667 331.5 351C332.667 350.667 333.833 350.333 335 350C334.833 349.667 334.667 349.333 334.5 349C334.333 348.667 334.167 348.333 334 348C333.5 348.333 333 348.667 332.5 349C332 349.333 331.5 349.667 331 350C331.333 347.667 331.667 345.333 332 343C332.333 340.667 332.667 338.333 333 336C331.333 336 329.667 336 328 336C324.667 336 322.167 336.833 320.5 338.5ZM344 336C344.667 336 345.667 338.167 347 342.5C347.667 344.667 348.333 346.833 349 349C347.333 349 345.667 349 344 349C342.333 349 340.667 349 339 349C339.667 346.833 340.333 344.667 341 342.5C342.333 338.167 343.333 336 344 336ZM357 338C356.667 338.667 356.333 339.333 356 340C356.5 339.667 357 339.333 357.5 339C358 338.667 358.5 338.333 359 338C359.333 339 359.667 340 360 341C360.667 343 360.333 344.833 359 346.5C357.667 348.167 356.5 348.833 355.5 348.5C355 348.333 354.5 348.167 354 348C354 348.667 354 349.333 354 350C354 350.667 354 351.333 354 352C354.5 352 355 352 355.5 352C356.5 352 357.5 351.167 358.5 349.5C359 348.667 359.5 347.833 360 347C360.5 347.833 361 348.667 361.5 349.5C362.5 351.167 363.667 352 365 352C366.333 352 367.333 351.333 368 350C368.333 349.333 368.667 348.667 369 348C368.5 348.333 368 348.667 367.5 349C367 349.333 366.5 349.667 366 350C365.833 348.667 365.667 347.333 365.5 346C365.167 343.333 365.333 341.5 366 340.5C366.667 339.5 367.5 339.167 368.5 339.5C369 339.667 369.5 339.833 370 340C370.167 339.333 370.333 338.667 370.5 338C370.667 337.333 370.833 336.667 371 336C370.5 336 370 336 369.5 336C368.5 336 367.5 336.667 366.5 338C366 338.667 365.5 339.333 365 340C364.5 339.333 364 338.667 363.5 338C362.5 336.667 361.333 336 360 336C358.667 336 357.667 336.667 357 338ZM326.5 338.5C327.5 338.833 328 339.667 328 341C328 342.333 327.667 343.833 327 345.5C326.333 347.167 325.333 348.333 324 349C323.333 349.333 322.667 349.667 322 350C322 348.667 322 347.333 322 346C322 343.333 322.5 341.333 323.5 340C324.5 338.667 325.5 338.167 326.5 338.5ZM198 340C198 340.333 198 340.667 198 341C201.167 341 204.333 341 207.5 341C210.667 341 213.833 341 217 341C217 340.667 217 340.333 217 340C217 339.667 217 339.333 217 339C213.833 339 210.667 339 207.5 339C204.333 339 201.167 339 198 339C198 339.333 198 339.667 198 340ZM249 345.5C247.667 347.167 247 349.167 247 351.5C247 353.833 247.5 355.667 248.5 357C249.5 358.333 251 359 253 359C255 359 256.333 358.5 257 357.5C257.667 356.5 258 354.333 258 351C258 347.667 256.833 345.5 254.5 344.5C252.167 343.5 250.333 343.833 249 345.5ZM198 346C198 346.333 198 346.667 198 347C201.167 347 204.333 347 207.5 347C210.667 347 213.833 347 217 347C217 346.667 217 346.333 217 346C217 345.667 217 345.333 217 345C213.833 345 210.667 345 207.5 345C204.333 345 201.167 345 198 345C198 345.333 198 345.667 198 346ZM252 345C252.5 345.5 253 346 253.5 346.5C254.5 347.5 254.833 349.667 254.5 353C254.333 354.667 254.167 356.333 254 358C253.5 357.833 253 357.667 252.5 357.5C251.5 357.167 251.167 355 251.5 351C251.667 349 251.833 347 252 345ZM248 394.5C246.667 395.5 245.167 397.667 243.5 401C241.833 404.333 240.833 409.667 240.5 417C240.167 424.333 240.833 430 242.5 434C244.167 438 246.167 440.667 248.5 442C249.667 442.667 250.833 443.333 252 444C251.167 443.167 250.333 442.333 249.5 441.5C247.833 439.833 246.333 437 245 433C243.667 429 243.167 423.5 243.5 416.5C243.833 409.5 244.333 405 245 403C245.667 401 247 399 249 397C250 396 251 395 252 394C251.667 393.833 251.333 393.667 251 393.5C250.333 393.167 249.333 393.5 248 394.5ZM313 401C315.667 406.333 317 412.167 317 418.5C317 424.833 316.333 429.833 315 433.5C313.667 437.167 312.333 439.5 311 440.5C310.333 441 309.667 441.5 309 442C309.333 442.333 309.667 442.667 310 443C310.333 443.333 310.667 443.667 311 444C312.333 442.167 313.667 440.333 315 438.5C317.667 434.833 319.333 430.333 320 425C320.667 419.667 320.333 414.167 319 408.5C317.667 402.833 315.667 398.833 313 396.5C311.667 395.333 310.333 394.167 309 393C310.333 395.667 311.667 398.333 313 401ZM98.5 397.5C96.1667 398.5 94 400 92 402C90 404 88.5 406.5 87.5 409.5C86.5 412.5 86.1667 415.333 86.5 418C86.8333 420.667 88.5 423.833 91.5 427.5C94.5 431.167 98.6667 433.333 104 434C109.333 434.667 113.833 433.833 117.5 431.5C121.167 429.167 123.667 426.333 125 423C126.333 419.667 126.833 416.5 126.5 413.5C126.167 410.5 124.667 407.333 122 404C119.333 400.667 116.833 398.5 114.5 397.5C112.167 396.5 109.5 396 106.5 396C103.5 396 100.833 396.5 98.5 397.5ZM273 399.5C273 400.333 273 401.167 273 402C272.167 402 271.333 402 270.5 402C268.833 402 267.833 402.333 267.5 403C267.333 403.333 267.167 403.667 267 404C268 404 269 404 270 404C271 404 272 404 273 404C273 405 273 406 273 407C273 408 273 409 273 410C273.333 410 273.667 410 274 410C274.333 410 274.667 410 275 410C275 409.167 275 408.333 275 407.5C275 405.833 276 404.833 278 404.5C280 404.167 281 403.667 281 403C281 402.667 281 402.333 281 402C280 402 279 402 278 402C277 402 276 402 275 402C275.167 401.167 275.333 400.333 275.5 399.5C275.667 398.667 275.833 397.833 276 397C275.5 397 275 397 274.5 397C274 397 273.5 397 273 397C273 397.833 273 398.667 273 399.5ZM254.5 400C254 400.667 253.5 401.333 253 402C253.5 401.833 254 401.667 254.5 401.5C255 401.333 255.5 401.167 256 401C255.833 402.5 255.667 404 255.5 405.5C255.333 407 255.167 408.5 255 410C255.667 410 256.333 410 257 410C258.333 410 259.833 409.333 261.5 408C263.167 406.667 264.333 405 265 403C265.667 401 265.667 399.667 265 399C264.333 398.333 263.5 398.167 262.5 398.5C261.5 398.833 260.833 399.333 260.5 400C260.333 400.333 260.167 400.667 260 401C260.5 401 261 401 261.5 401C262 401 262.5 401 263 401C263 401.333 263 401.667 263 402C263 402.667 262.167 403.833 260.5 405.5C259.667 406.333 258.833 407.167 258 408C258.167 406.5 258.333 405 258.5 403.5C258.833 400.5 258.5 398.833 257.5 398.5C256.5 398.167 255.5 398.667 254.5 400ZM106.5 399C110.167 399 113 399.5 115 400.5C117 401.5 118.833 403.167 120.5 405.5C122.167 407.833 123 411.333 123 416C123 420.667 121.333 424.5 118 427.5C114.667 430.5 110.833 432 106.5 432C102.167 432 98.3333 430.333 95 427C91.6667 423.667 90 419.833 90 415.5C90 411.167 90.8333 407.833 92.5 405.5C94.1667 403.167 96 401.5 98 400.5C100 399.5 102.833 399 106.5 399ZM283.5 400.5C283.333 401 283.167 401.5 283 402C283.5 401.833 284 401.667 284.5 401.5C285 401.333 285.5 401.167 286 401C285.833 402.5 285.667 404 285.5 405.5C285.333 407 285.167 408.5 285 410C285.833 409.833 286.667 409.667 287.5 409.5C289.167 409.167 291 407.667 293 405C294 403.667 295 402.333 296 401C295.167 400.667 294.333 400.333 293.5 400C292.667 399.667 291.833 399.333 291 399C290.833 399.5 290.667 400 290.5 400.5C290.333 401 290.167 401.5 290 402C290.5 401.833 291 401.667 291.5 401.5C292 401.333 292.5 401.167 293 401C293 401.333 293 401.667 293 402C293 402.667 292.167 403.667 290.5 405C289.667 405.667 288.833 406.333 288 407C288.167 405.833 288.333 404.667 288.5 403.5C288.833 401.167 288.167 399.833 286.5 399.5C284.833 399.167 283.833 399.5 283.5 400.5ZM298 403C297.333 403.667 297 405.5 297 408.5C297 411.5 298.167 413.167 300.5 413.5C302.833 413.833 304.333 412.667 305 410C305.667 407.333 305.5 405.333 304.5 404C303.5 402.667 302.333 402 301 402C299.667 402 298.667 402.333 298 403ZM301 403C301.333 403.333 301.667 403.667 302 404C302.667 404.667 303 406.167 303 408.5C303 410.833 302.5 412.167 301.5 412.5C301 412.667 300.5 412.833 300 413C300.167 411.333 300.333 409.667 300.5 408C300.667 406.333 300.833 404.667 301 403ZM101 412C100.667 414 100.333 416 100 418C101.333 417.667 102.667 417.333 104 417C105.333 416.667 106.667 416.333 108 416C108.167 416.833 108.333 417.667 108.5 418.5C108.833 420.167 108.5 421.333 107.5 422C107 422.333 106.5 422.667 106 423C105.667 422.5 105.333 422 105 421.5C104.333 420.5 103.333 420 102 420C101.333 420 100.667 420 100 420C100 420.5 100 421 100 421.5C100 422.5 100.5 423.5 101.5 424.5C102.5 425.5 104 426 106 426C108 426 109.667 425.333 111 424C112.333 422.667 113 421 113 419C113 417 112.667 415.5 112 414.5C111.333 413.5 110 413 108 413C107 413 106 413 105 413C105 412.5 105 412 105 411.5C105 411 105 410.5 105 410C106.167 410 107.333 410 108.5 410C109.667 410 110.833 410 112 410C112 409.333 112 408.667 112 408C112 407.333 112 406.667 112 406C110.333 406 108.667 406 107 406C103.667 406 101.667 408 101 412ZM159 417.5C157.667 421 156.333 424.5 155 428C157.833 428 160.667 428 163.5 428C166.333 428 169.167 428 172 428C171 424.5 170 421 169 417.5C167 410.5 165.5 407 164.5 407C163.5 407 161.667 410.5 159 417.5ZM332 411C330.667 412.333 330.167 415.5 330.5 420.5C330.667 423 330.833 425.5 331 428C332.333 427.667 333.667 427.333 335 427C337.667 426.333 339 425.667 339 425C339 424.667 339 424.333 339 424C338.167 424.333 337.333 424.667 336.5 425C335.667 425.333 334.833 425.667 334 426C334 425.5 334 425 334 424.5C334 423.5 334.333 421.5 335 418.5C335.667 415.5 336.833 414 338.5 414C339.333 414 340.167 414 341 414C340.333 413.667 339.667 413.333 339 413C337.667 412.333 337.167 411.5 337.5 410.5C337.667 410 337.833 409.5 338 409C337.333 409 336.667 409 336 409C334.667 409 333.333 409.667 332 411ZM163 412C163.833 414.167 164.667 416.333 165.5 418.5C166.333 420.667 167.167 422.833 168 425C166.333 425 164.667 425 163 425C161.333 425 159.667 425 158 425C158.833 422.833 159.667 420.667 160.5 418.5C161.333 416.333 162.167 414.167 163 412ZM176.5 414C176 414.667 175.5 415.333 175 416C175.667 415.833 176.333 415.667 177 415.5C177.667 415.333 178.333 415.167 179 415C179.167 416 179.333 417 179.5 418C179.833 420 179.5 421.667 178.5 423C177.5 424.333 176.5 424.833 175.5 424.5C175 424.333 174.5 424.167 174 424C173.833 424.667 173.667 425.333 173.5 426C173.333 426.667 173.167 427.333 173 428C173.667 428 174.333 428 175 428C176.333 428 177.5 427.167 178.5 425.5C179 424.667 179.5 423.833 180 423C180.333 423.833 180.667 424.667 181 425.5C181.667 427.167 182.833 428 184.5 428C186.167 428 187.333 427.5 188 426.5C188.333 426 188.667 425.5 189 425C188.333 425.167 187.667 425.333 187 425.5C186.333 425.667 185.667 425.833 185 426C184.833 424.833 184.667 423.667 184.5 422.5C184.167 420.167 184.5 418.333 185.5 417C186.5 415.667 187.5 415.167 188.5 415.5C189 415.667 189.5 415.833 190 416C190 415.333 190 414.667 190 414C190 413.333 190 412.667 190 412C189.5 412 189 412 188.5 412C187.5 412 186.667 412.667 186 414C185.667 414.667 185.333 415.333 185 416C183.833 415.333 182.667 414.667 181.5 414C179.167 412.667 177.5 412.667 176.5 414ZM201 416C201 416.333 201 416.667 201 417C204.167 417 207.333 417 210.5 417C213.667 417 216.833 417 220 417C220 416.667 220 416.333 220 416C220 415.667 220 415.333 220 415C216.833 415 213.667 415 210.5 415C207.333 415 204.167 415 201 415C201 415.333 201 415.667 201 416ZM252 419C252 419.333 252 419.667 252 420C261.333 420 270.667 420 280 420C289.333 420 298.667 420 308 420C308 419.667 308 419.333 308 419C308 418.667 308 418.333 308 418C298.667 418 289.333 418 280 418C270.667 418 261.333 418 252 418C252 418.333 252 418.667 252 419ZM201 422.5C201 423 201 423.5 201 424C204.167 424 207.333 424 210.5 424C213.667 424 216.833 424 220 424C219.833 423.5 219.667 423 219.5 422.5C219.167 421.5 216 421 210 421C207 421 204 421 201 421C201 421.5 201 422 201 422.5ZM275.5 427.5C274.5 427.833 274 428.5 274 429.5C274 430 274 430.5 274 431C275 430.5 276 430 277 429.5C278 429 279 428.5 280 428C280.167 428.833 280.333 429.667 280.5 430.5C280.833 432.167 279.833 434.667 277.5 438C276.333 439.667 275.167 441.333 274 443C275.833 443 277.667 443 279.5 443C281.333 443 283.167 443 285 443C285 442.333 285 441.667 285 441C285 440.333 285 439.667 285 439C283.833 439.167 282.667 439.333 281.5 439.5C280.333 439.667 279.167 439.833 278 440C279 439 280 438 281 437C283 435 284.167 433.167 284.5 431.5C284.833 429.833 283.667 428.667 281 428C278.333 427.333 276.5 427.167 275.5 427.5Z" fill="#000000" fill-rule="nonzero" opacity="1" stroke="none"/>
</g>
</svg>
